<svg xmlns="http://www.w3.org/2000/svg" xmlns:xlink="http://www.w3.org/1999/xlink" width="185.8" height="185.8" viewBox="0 0 185.8 185.8"><defs><style>.cls-1{fill:url(#Degradado_sin_nombre_76);}.cls-2{fill:none;stroke-miterlimit:10;stroke-width:7px;stroke:url(#Degradado_sin_nombre_14);}</style><linearGradient id="Degradado_sin_nombre_76" x1="121.38" y1="95.77" x2="57.6" y2="95.77" gradientUnits="userSpaceOnUse"><stop offset="0.15" stop-color="#00d2c7"/><stop offset="0.18" stop-color="#00c3c0"/><stop offset="0.28" stop-color="#00a3b0"/><stop offset="0.38" stop-color="#0089a3"/><stop offset="0.48" stop-color="#007499"/><stop offset="0.61" stop-color="#006692"/><stop offset="0.76" stop-color="#005e8e"/><stop offset="1" stop-color="#005b8d"/></linearGradient><linearGradient id="Degradado_sin_nombre_14" x1="185.8" y1="92.9" x2="0" y2="92.9" gradientUnits="userSpaceOnUse"><stop offset="0.33" stop-color="#00d2c7"/><stop offset="1" stop-color="#005b8d"/></linearGradient></defs><title>compra-exitosa6</title><g id="Capa_2" data-name="Capa 2"><g id="Capa_1-2" data-name="Capa 1"><path class="cls-1" d="M54.39,115.92l22,17.49,3.12,2.48a5.71,5.71,0,0,0,4.62,1.51,5.28,5.28,0,0,0,4-2.63l12.51-24.53,19.93-39,4.53-8.89c1.31-2.56.76-6.09-2-7.53-2.51-1.32-6.13-.76-7.52,2L103.14,81.28,83.22,120.33l-4.54,8.89,8.64-1.11-22-17.49-3.12-2.48a6,6,0,0,0-3.89-1.61,5.61,5.61,0,0,0-3.89,1.61c-1.82,2-2.4,5.87,0,7.78Z"/><circle class="cls-2" cx="92.9" cy="92.9" r="89.4"/></g></g></svg>