<svg xmlns="http://www.w3.org/2000/svg" width="24.76" height="29.06" viewBox="0 0 24.76 29.06"><defs><style>.cls-1{fill:none;opacity:0.1;}.cls-1,.cls-2,.cls-4{stroke:#bd398d;stroke-miterlimit:10;}.cls-2,.cls-3,.cls-4{fill:#bd398d;}.cls-2{stroke-width:1.5px;}</style></defs><title>icon-eliminar_8</title><g id="Capa_2" data-name="Capa 2"><g id="Capa_1-2" data-name="Capa 1"><path class="cls-1" d="M1.37,7.64A.89.89,0,0,0,.7,8a.85.85,0,0,0-.18.72L4.19,27.84a.88.88,0,0,0,.87.72l14.82-.12a.87.87,0,0,0,.86-.72l3.5-19.21a.85.85,0,0,0-.19-.72.9.9,0,0,0-.68-.32Z"/><path class="cls-2" d="M1.39,5.38l22-.15V4.94a1.14,1.14,0,0,0-1.2-1.05h0a.82.82,0,0,1-.86-.75V2.85a.32.32,0,0,0-.1-.22A.38.38,0,0,0,21,2.54l-4.5,0H15.05l-5.53,0H8.12l-4.2,0a.38.38,0,0,0-.25.09.32.32,0,0,0-.1.22v.29A.82.82,0,0,1,2.73,4H2.56A1.12,1.12,0,0,0,1.38,5.1Z"/><path class="cls-3" d="M24.05,7.83a.9.9,0,0,0-.68-.32l-22,.17A.89.89,0,0,0,.7,8a.85.85,0,0,0-.18.72L4.19,27.88a.86.86,0,0,0,.87.71l14.82-.11a.87.87,0,0,0,.86-.72l3.5-19.21A.85.85,0,0,0,24.05,7.83ZM7.7,26.43a.85.85,0,0,1-1-.68L4.18,11.57a.83.83,0,0,1,.72-1,.86.86,0,0,1,1,.69L8.42,25.48A.83.83,0,0,1,7.7,26.43Zm4.83.06a.84.84,0,0,1-.88-.82L11.52,11.3a.88.88,0,0,1,1.75,0l.12,14.37A.84.84,0,0,1,12.53,26.49Zm5.81-.83a.86.86,0,0,1-1,.7.84.84,0,0,1-.74-.94l2.28-14.21a.85.85,0,0,1,1-.7.83.83,0,0,1,.74.94Z"/><path class="cls-4" d="M13.6,2.3h.62V1.16a1.09,1.09,0,0,0-.09-.47C14.07.57,14,.5,13.91.5L10.84.55c-.08,0-.16.07-.22.2a1.09,1.09,0,0,0-.09.47V2.35h.62V1.18l2.44,0Z"/></g></g></svg>